<?xml version="1.0" encoding="UTF-8"?><svg id="Layer_1" xmlns="http://www.w3.org/2000/svg" viewBox="0 0 24 24"><defs><style>.cls-1{stroke-width:.25px;}.cls-1,.cls-2{fill:none;}.cls-1,.cls-2,.cls-3{stroke:#fff;stroke-miterlimit:10;}.cls-4{fill:#404041;stroke-width:0px;}.cls-3{fill:#fff;stroke-width:.1px;}</style></defs><rect class="cls-4" x="8" y="-1.69" width="8.46" height="20.67" rx="1.7" ry="1.7" transform="translate(3.02 20.46) rotate(-87.29)"/><path class="cls-4" d="M23.48,8.87l-1.97-.09c-.45-.02-.83.42-.86.99l-.14,2.83-17-.8.14-2.83c.03-.57-.31-1.04-.76-1.06l-1.97-.09c-.45-.02-.83.42-.86.99l-.34,7.11c-.03.57.31,1.04.76,1.06l1.6.08,20.86.99h0s.1,0,.1,0c.45.02.83-.42.86-.99l.34-7.11c.03-.57-.31-1.04-.76-1.06Z"/><path class="cls-1" d="M23.48,8.87l-1.97-.09c-.45-.02-.83.42-.86.99l-.14,2.83-17-.8.14-2.83c.03-.57-.31-1.04-.76-1.06l-1.97-.09c-.45-.02-.83.42-.86.99l-.34,7.11c-.03.57.31,1.04.76,1.06l1.6.08,20.86.99h0s.1,0,.1,0c.45.02.83-.42.86-.99l.34-7.11c.03-.57-.31-1.04-.76-1.06Z"/><path class="cls-3" d="M23.14,18.53s-.08,0-.12,0h-.1S.46,17.46.46,17.46c-.32-.01-.61-.19-.83-.49-.21-.3-.32-.69-.3-1.09l.34-7.11c.02-.41.16-.78.4-1.06s.55-.42.87-.41l1.97.09c.66.03,1.17.74,1.13,1.58l-.11,2.33,16.22.77.11-2.33c.02-.41.16-.78.4-1.06.24-.28.55-.42.87-.41l1.97.09c.66.03,1.17.74,1.13,1.58l-.34,7.11c-.04.79-.55,1.42-1.16,1.46ZM.85,8.3c-.1,0-.19.06-.26.14-.08.1-.13.23-.14.37L.11,15.92c0,.14.03.28.1.38s.18.16.29.17l22.56,1.07c.25.02.43-.22.44-.51l.34-7.11c.01-.29-.16-.54-.39-.55l-1.97-.09c-.11,0-.22.04-.3.14-.08.1-.13.23-.14.37l-.16,3.33-17.78-.84.16-3.33c.01-.29-.16-.54-.39-.55l-1.97-.09s-.03,0-.04,0Z"/><rect class="cls-4" x="-.33" y="16.23" width="5.11" height="1.29" transform="translate(-14.74 18.3) rotate(-87.29)"/><rect class="cls-4" x="18.92" y="17.32" width="5.11" height="1.29" transform="translate(-3.05 31.49) rotate(-68.78)"/><polyline class="cls-2" points="9.44 2.22 7.19 4.96 8.52 6.35 6.57 8.2"/><line class="cls-2" x1="12.56" y1="1.27" x2="11.9" y2="12.46"/></svg>