<?xml version="1.0" encoding="UTF-8"?><svg id="Layer_1" xmlns="http://www.w3.org/2000/svg" viewBox="0 0 24 24"><defs><style>.cls-1{fill:#3166a5;stroke-width:0px;}</style></defs><path class="cls-1" d="M6.85,18.95h-1.33c-.79,0-1.49-.41-1.89-1.09-.39-.68-.39-1.5,0-2.18l2.36-4.09,1.34.69c.2.1.43-.08.37-.3l-1.16-4.58c-.04-.15-.2-.23-.34-.18l-4.47,1.66c-.21.08-.23.37-.03.48l1.41.73-2.29,3.96c-1.02,1.77-.98,3.89.12,5.63,1.03,1.62,2.89,2.51,4.81,2.51h1.1c.47,0,.86-.38.86-.86v-1.53c0-.47-.38-.86-.86-.86Z"/><path class="cls-1" d="M23.08,14.04l-.71-1.24c-.24-.41-.76-.55-1.17-.31l-1.32.77c-.41.24-.55.76-.31,1.17l.71,1.24c.45.77.39,1.68-.16,2.42-.41.55-1.09.85-1.78.85h-4.25l.02-1.59c0-.22-.26-.35-.43-.2l-3.56,3.1c-.12.1-.12.28,0,.39l3.49,3.25c.17.15.44.04.44-.19l.02-1.5h4.1c1.92,0,3.78-.89,4.81-2.5,1.11-1.74,1.15-3.87.13-5.64Z"/><path class="cls-1" d="M13.88,4.5l2.11,3.66-1.35.78c-.19.11-.17.4.05.47l4.48,1.49c.15.05.3-.04.34-.19l1.01-4.66c.05-.22-.19-.39-.38-.28l-1.33.77-2.11-3.66C15.67,1.1,13.81.08,11.75.16c-1.91.08-3.62,1.25-4.57,2.91l-.64,1.1c-.24.41-.1.94.31,1.17l1.32.77c.41.24.94.1,1.17-.31l.75-1.3c.84-1.45,2.94-1.45,3.77,0Z"/></svg>