<?xml version="1.0" encoding="UTF-8"?><svg id="Layer_1" xmlns="http://www.w3.org/2000/svg" viewBox="0 0 24 24"><defs><style>.cls-1{fill:#404041;stroke-width:0px;}</style></defs><path class="cls-1" d="M20.29,1.71h-.07c-.04-.65,0-1.02-1.11-1.15-.15-.02-.31-.01-.46,0L3.9,1.67c-.2.02-.34.21-.3.4l.13.61,15.46.74c.12,0,.22.11.22.23l-.19,2.14h.93s.08-.03.09-.08l.39-3.67c0-.18-.15-.32-.34-.32Z"/><path class="cls-1" d="M8.51,18.21c-1.5,0-2.72,1.22-2.72,2.72s1.22,2.72,2.72,2.72,2.72-1.22,2.72-2.72-1.22-2.72-2.72-2.72ZM8.51,22.23c-.72,0-1.3-.58-1.3-1.3s.58-1.3,1.3-1.3,1.3.58,1.3,1.3-.58,1.3-1.3,1.3Z"/><path class="cls-1" d="M18.16,4.14l-14.21-.8c-.12,0-.21.07-.2.16l2.37,14.62s.04.04.06.03c.94-.67,2.16-.95,3.48-.55.04.01.09.03.13.06,2.8,1.78,2.54,3.44,2.09,4.83-.05.15.05.31.21.31l4.71.07c.26,0,.48-.15.5-.35l1.14-18.14c0-.12-.12-.23-.28-.23Z"/></svg>